<svg xmlns="http://www.w3.org/2000/svg" width="16" height="14" viewBox="0 0 16 14" fill="none">
  <path d="M0.266842 14C0.195919 14 0.126584 13.9752 0.0753147 13.9291C0.00390416 13.8649 -0.0190449 13.7704 0.0164773 13.6862L1.24633 10.7508C0.430537 9.62917 0.000120008 8.33461 0.000120008 7C0.000120008 3.14015 3.58896 0 8.00006 0C12.4113 0 16 3.14015 16 7C16 10.8597 12.4113 14 8.00006 14C6.52461 14 5.08602 13.6451 3.83078 12.9731L0.35107 13.988C0.323604 13.996 0.295162 14 0.266842 14ZM3.86545 12.4838C3.91562 12.4838 3.96518 12.4961 4.00815 12.5199C5.20308 13.1831 6.58332 13.5333 8.00006 13.5333C12.1171 13.5333 15.4667 10.6024 15.4667 7C15.4667 3.39757 12.1171 0.46666 8.00006 0.46666C3.88303 0.46666 0.533563 3.39757 0.533563 7C0.533563 8.28259 0.959341 9.52534 1.76524 10.5936C1.81187 10.6554 1.82201 10.7328 1.79295 10.8024L0.707634 13.3921L3.78098 12.4959C3.80869 12.4878 3.83701 12.4838 3.86545 12.4838Z" fill="black"/>
  <path d="M14.6665 7.23333C14.5192 7.23333 14.3997 7.12886 14.3997 7.00005C14.3997 5.73091 13.8533 4.45782 12.8617 3.41598C12.7673 3.31708 12.7827 3.16989 12.8957 3.08722C13.0089 3.00487 13.1771 3.01822 13.2712 3.11713C14.343 4.24292 14.9331 5.62197 14.9331 7.00005C14.9331 7.12886 14.8137 7.23333 14.6665 7.23333Z" fill="black"/>
  <path d="M12.2667 2.79996C12.2062 2.79996 12.1454 2.78201 12.0954 2.74538C11.6427 2.41287 11.2253 2.15663 10.8201 1.9618C10.691 1.89974 10.6438 1.7579 10.7145 1.64521C10.7851 1.53252 10.9472 1.49076 11.0765 1.55282C11.513 1.76227 11.9585 2.03561 12.4385 2.38787C12.5513 2.47076 12.5659 2.61795 12.4713 2.71664C12.4182 2.77154 12.3428 2.79996 12.2667 2.79996Z" fill="black"/>
  <path d="M9.86647 1.63326C9.83876 1.63326 9.8108 1.62931 9.78273 1.62141C9.14991 1.43876 8.61207 1.40062 7.99927 1.39977C7.85205 1.39956 7.73267 1.29499 7.73291 1.16617C7.7334 1.03757 7.85291 0.933319 7.99976 0.933319H8.00012C8.7859 0.93428 9.35072 1.00542 9.94996 1.17835C10.0897 1.21872 10.1657 1.35074 10.1195 1.47304C10.0828 1.5712 9.97853 1.63326 9.86647 1.63326Z" fill="black"/>
</svg>