<svg width="20" height="20" viewBox="0 0 20 20" fill="none" xmlns="http://www.w3.org/2000/svg">
<g id="photo-camera (1)">
<g id="Group">
<path id="Vector" d="M18.4003 5.16668H15.559L14.2257 1.83334H5.77433L4.441 5.16668H4V3.50001H2V5.16668H1.59967C0.717333 5.16668 0 5.88401 0 6.76634V16.5557C0 17.444 0.722667 18.1667 1.611 18.1667H18.389C19.2773 18.1667 20 17.444 20 16.5557V6.76634C20 5.88401 19.2827 5.16668 18.4003 5.16668ZM2.66667 4.16668H3.33333V5.16668H2.66667V4.16668ZM19.3333 16.5557C19.3333 17.0767 18.9097 17.5 18.389 17.5H1.611C1.09033 17.5 0.666667 17.0763 0.666667 16.5557V6.76634C0.666667 6.25201 1.08533 5.83334 1.59967 5.83334H2H4H4.89233L6.22567 2.50001H13.7743L15.1077 5.83334H18.4003C18.9147 5.83334 19.3333 6.25201 19.3333 6.76634V16.5557Z" fill="black"/>
<path id="Vector_2" d="M10 6C7.24292 6 5 8.24292 5 11C5 13.7571 7.24292 16 10 16C12.7571 16 15 13.7571 15 11C15 8.24292 12.7571 6 10 6ZM10 15.1667C7.7025 15.1667 5.83333 13.2975 5.83333 11C5.83333 8.7025 7.7025 6.83333 10 6.83333C12.2975 6.83333 14.1667 8.7025 14.1667 11C14.1667 13.2975 12.2975 15.1667 10 15.1667Z" fill="black"/>
</g>
</g>
</svg>
